<?xml version="1.0" standalone="no"?>
<!DOCTYPE svg PUBLIC "-//W3C//DTD SVG 20010904//EN"
 "http://www.w3.org/TR/2001/REC-SVG-20010904/DTD/svg10.dtd">
<svg version="1.0" xmlns="http://www.w3.org/2000/svg"
 width="819.000000pt" height="819.000000pt" viewBox="0 0 819.000000 819.000000"
 preserveAspectRatio="xMidYMid meet">
<metadata>
Created by potrace 1.14, written by Peter Selinger 2001-2017
</metadata>
<g transform="translate(0.000000,819.000000) scale(0.100000,-0.100000)"
fill="#000000" stroke="none">
<path d="M1735 8175 c-119 -27 -174 -89 -191 -212 -9 -66 -9 -7636 0 -7696 18
-119 112 -217 234 -245 63 -14 158 -5 214 20 53 25 108 69 108 88 0 6 4 10 8
10 11 0 44 93 48 133 3 31 4 109 3 315 0 57 3 107 6 112 4 6 1 10 -5 10 -6 0
-8 5 -4 11 5 9 6 83 2 189 0 8 0 51 1 95 1 44 1 135 1 203 -1 67 2 127 5 132
4 6 1 10 -5 10 -6 0 -8 5 -4 11 5 9 6 83 2 189 0 8 0 51 1 95 1 44 1 135 1
203 -1 67 2 127 5 132 4 6 1 10 -5 10 -6 0 -8 5 -4 11 5 9 6 83 2 189 0 8 0
51 1 95 1 44 1 135 1 203 -1 67 2 127 5 132 4 6 1 10 -5 10 -6 0 -8 5 -4 11 5
9 6 83 2 189 0 8 0 51 1 95 0 44 0 87 0 95 0 8 0 47 0 85 0 39 0 77 0 85 0 8
0 51 0 95 0 44 1 126 1 183 -1 57 2 107 5 112 4 6 1 10 -5 10 -6 0 -8 5 -4 11
5 9 6 83 2 189 0 8 0 51 1 95 0 44 0 87 0 95 0 8 0 47 0 85 0 39 0 77 0 85 -1
29 0 186 2 260 1 41 1 86 1 100 -1 14 -1 57 -1 95 0 39 0 76 0 83 -2 28 -2 40
-2 117 0 44 0 89 -1 100 0 11 0 58 1 105 0 47 0 92 0 100 0 8 0 51 0 95 0 44
1 126 1 183 -1 57 2 107 5 112 4 6 1 10 -5 10 -6 0 -8 5 -4 11 5 9 6 83 2 189
0 8 0 51 1 95 0 44 0 87 0 95 0 8 0 47 0 85 0 39 0 77 0 85 -1 29 0 186 2 260
1 41 1 86 1 100 -1 14 -1 57 -1 95 0 39 0 76 0 83 -2 28 -2 40 -2 117 0 44 0
89 -1 100 0 11 0 58 1 105 0 47 0 92 0 100 0 8 0 51 0 95 1 99 2 274 1 337
l-1 47 1288 -3 c708 -2 1304 -6 1323 -10 19 -4 53 -12 75 -17 22 -6 48 -11 57
-13 10 -1 21 -5 24 -9 4 -4 13 -7 20 -7 7 0 23 -4 36 -9 13 -5 25 -8 28 -8 6
1 172 -85 180 -93 3 -3 18 -14 34 -24 117 -75 267 -250 344 -401 53 -106 105
-270 119 -375 3 -19 8 -61 12 -92 12 -93 4 -304 -15 -390 -2 -10 -6 -28 -9
-40 -28 -134 -72 -256 -136 -374 -23 -43 -45 -81 -48 -84 -3 -3 -22 -27 -41
-55 -71 -104 -164 -193 -281 -271 -37 -24 -72 -44 -78 -44 -6 0 -11 -4 -11
-10 0 -5 -4 -10 -10 -10 -5 0 -33 -11 -62 -24 -45 -21 -122 -49 -138 -51 -3 0
-11 -4 -17 -8 -7 -5 -13 -6 -13 -3 0 2 -15 0 -32 -5 -18 -5 -49 -12 -68 -15
-19 -3 -46 -8 -60 -11 -14 -3 -428 -7 -920 -8 -984 -3 -942 0 -1032 -64 -31
-22 -93 -101 -93 -120 0 -3 -4 -11 -8 -18 -4 -7 -9 -40 -11 -74 -7 -158 99
-291 253 -315 47 -8 1681 -8 1786 0 274 20 497 78 725 188 108 53 251 139 286
172 6 6 26 22 45 36 96 69 320 322 379 428 8 15 17 29 20 32 5 5 13 21 67 125
100 196 170 430 200 670 5 33 8 150 7 260 0 181 -4 236 -19 315 -2 14 -7 39
-10 55 -3 17 -7 40 -10 53 -3 12 -7 30 -9 40 -2 9 -9 37 -16 62 -7 25 -13 50
-15 55 -1 6 -4 17 -7 25 -3 8 -14 38 -23 65 -10 28 -31 79 -47 115 -17 36 -37
81 -45 100 -17 39 -140 238 -160 258 -7 8 -25 30 -40 50 -48 66 -252 262 -273
262 -5 0 -10 4 -10 9 0 21 -347 221 -383 221 -3 0 -18 5 -34 12 -15 6 -30 12
-33 13 -3 1 -30 9 -60 19 -69 22 -145 42 -190 50 -19 3 -46 8 -60 11 -14 3
-45 8 -70 11 -25 3 -56 8 -70 11 -14 3 -698 6 -1520 7 -1088 2 -1509 -1 -1545
-9z"/>
<path d="M2905 3992 c-97 -10 -184 -57 -230 -125 -103 -152 -31 -381 144 -460
45 -21 55 -21 778 -22 l731 0 13 -32 c7 -18 16 -33 21 -33 4 0 8 -5 8 -11 0
-6 8 -23 19 -37 18 -26 50 -83 97 -171 13 -24 28 -49 33 -55 8 -10 52 -90 109
-196 13 -25 28 -49 32 -55 9 -11 27 -43 90 -160 23 -44 46 -84 50 -90 4 -5 21
-35 38 -65 16 -30 40 -73 52 -95 13 -22 33 -58 45 -80 12 -22 68 -125 126
-228 123 -222 166 -301 187 -342 8 -16 24 -42 34 -57 11 -16 16 -28 13 -28 -3
0 2 -12 13 -27 10 -16 63 -111 118 -213 54 -102 102 -186 106 -188 4 -2 8 -12
8 -22 0 -10 3 -20 8 -22 4 -1 17 -23 29 -48 23 -47 103 -196 119 -221 4 -8 9
-20 10 -27 1 -7 8 -20 15 -28 14 -17 14 -16 199 -379 161 -317 174 -340 211
-375 49 -46 66 -58 123 -79 72 -27 140 -27 212 0 85 32 124 68 161 147 21 44
25 65 21 118 -3 56 -14 84 -75 207 -109 216 -223 456 -223 467 0 5 -5 10 -11
10 -6 0 -9 6 -6 14 3 8 3 16 -1 18 -8 4 -30 48 -107 218 -32 69 -84 181 -116
249 -33 68 -59 125 -59 126 0 4 -111 235 -336 700 -21 44 -42 83 -47 86 -5 3
-8 8 -6 10 3 5 -59 129 -73 146 -6 7 -7 13 -2 13 5 0 5 4 -1 8 -5 4 -34 54
-64 112 -30 58 -83 156 -117 217 -35 62 -64 117 -64 122 0 5 -4 11 -8 13 -4 2
-25 35 -47 73 -21 39 -41 72 -44 75 -10 8 -42 64 -48 83 -3 9 -9 17 -14 17 -5
0 -9 7 -9 15 0 8 -4 15 -10 15 -5 0 -10 7 -10 15 0 8 -4 15 -10 15 -5 0 -10 5
-10 10 0 6 -16 33 -35 60 -19 28 -52 74 -72 103 -120 172 -306 367 -406 426
-113 67 -65 63 -912 65 -423 0 -783 0 -800 -2z"/>
</g>
</svg>
