<?xml version="1.0" encoding="UTF-8" standalone="no"?><!DOCTYPE svg PUBLIC "-//W3C//DTD SVG 1.1//EN" "http://www.w3.org/Graphics/SVG/1.1/DTD/svg11.dtd"><svg width="100%" height="100%" viewBox="0 0 15 24" version="1.1" xmlns="http://www.w3.org/2000/svg" xmlns:xlink="http://www.w3.org/1999/xlink" xml:space="preserve" xmlns:serif="http://www.serif.com/" style="fill-rule:evenodd;clip-rule:evenodd;stroke-linejoin:round;stroke-miterlimit:2;"><path d="M1.875,1.634c-0.601,0 -0.781,0.267 -0.781,0.77l0,19.154c0,1.006 1.561,1.094 1.561,-0l-0,-18.207l6.033,0c3.931,0 3.781,6.276 -0.18,6.246l-3.902,0c-1.11,0 -1.05,1.511 -0,1.511l3.902,-0c6.273,-0 6.393,-9.474 0.18,-9.474l-6.813,0Zm6.213,12.168c0.78,1.331 3.391,6.068 4.351,8.051c0.481,1.007 1.891,0.415 1.381,-0.562c-1.171,-2.221 -3.811,-9.029 -5.462,-9.029l-3.752,-0c-1.11,-0 -0.96,1.54 -0,1.54l3.482,-0Z" style="fill-rule:nonzero;"/></svg>